<svg width="22" height="22" viewBox="0 0 22 22" fill="none" xmlns="http://www.w3.org/2000/svg">
<path fill-rule="evenodd" clip-rule="evenodd" d="M3.20877 3.70509C3.20569 3.7079 2.90116 3.71441 2.53203 3.71957C0.967869 3.74143 0.311473 3.75435 0.170019 3.76604C0.095545 3.77221 0.0525329 3.79684 0.0257324 3.84863C-0.00471801 3.90751 -0.0101333 17.8913 0.0202718 17.9612C0.0593189 18.0509 0.0667092 18.0523 0.586462 18.064C0.847756 18.0699 1.10566 18.0766 1.15957 18.0789C2.07395 18.1179 5.25324 18.1188 5.48808 18.0803C5.50882 18.0769 5.58008 18.07 5.64644 18.065C6.84665 17.975 8.04836 17.5909 8.8966 17.0264C9.22863 16.8054 9.60177 16.4695 9.85468 16.1638C10.2778 15.6525 10.581 14.9591 10.6856 14.2635C10.7176 14.0508 10.7298 13.4893 10.7075 13.2506C10.653 12.6653 10.4624 12.0859 10.1743 11.6293C9.86654 11.1418 9.39665 10.7069 8.80988 10.3666C8.74974 10.3317 8.70053 10.301 8.70053 10.2984C8.70053 10.2957 8.74707 10.259 8.80398 10.2166C9.09495 10.0003 9.40611 9.63188 9.60875 9.26385C9.73616 9.03242 9.87366 8.65555 9.93741 8.36304C9.9924 8.11075 10.0121 7.91185 10.0124 7.60475C10.0135 6.47597 9.61965 5.54866 8.86197 4.89617C8.39481 4.49386 7.69427 4.14156 6.99125 3.95539C6.68372 3.87395 6.20155 3.78948 5.91038 3.76601C5.84817 3.761 5.78708 3.75431 5.77464 3.75114C5.7622 3.74797 5.68076 3.74103 5.59366 3.73573C5.50656 3.7304 5.40476 3.72247 5.36743 3.71806C5.29309 3.70932 3.21783 3.69684 3.20877 3.70509ZM5.05825 6.31369C5.21015 6.32707 5.33253 6.34541 5.53333 6.38491C6.05982 6.48849 6.36721 6.63332 6.64996 6.91107C6.77428 7.03319 6.81722 7.09376 6.90691 7.27347C7.01439 7.48887 7.0588 7.70482 7.05758 8.00621C7.05538 8.55441 6.89839 8.94377 6.52077 9.33763L6.41268 9.45037L6.28595 9.43192C6.21625 9.42177 6.13548 9.41081 6.10644 9.40757C6.07741 9.40431 6.01972 9.39787 5.97825 9.39325C5.74398 9.36713 4.99551 9.35019 3.94973 9.34736L2.96186 9.34469V7.83001V6.31534L3.30875 6.31153C3.49953 6.30945 3.66071 6.30606 3.66694 6.30399C3.69332 6.29526 4.94821 6.30401 5.05825 6.31369ZM16.9633 6.99307C16.9603 6.99574 16.9002 7.00227 16.8297 7.00761C16.401 7.04001 15.8848 7.15947 15.4421 7.32875C14.6468 7.63289 13.9276 8.17578 13.3686 8.89386C12.7035 9.74836 12.2972 10.8063 12.1593 12.0426C12.1272 12.3308 12.1226 13.1442 12.1515 13.4265C12.2139 14.0368 12.3569 14.6677 12.5406 15.1437C13.0388 16.4351 13.9943 17.4144 15.2254 17.8958C15.6344 18.0558 16.1655 18.1867 16.611 18.2373C16.6939 18.2467 16.7856 18.2572 16.8146 18.2605C16.8436 18.2639 16.9319 18.271 17.0107 18.2764C17.0895 18.2818 17.1777 18.2886 17.2067 18.2916C17.2812 18.2992 18.2708 18.2994 18.353 18.2918C18.3903 18.2884 18.492 18.281 18.5789 18.2754C18.6658 18.2698 18.7405 18.2632 18.7448 18.2607C18.7491 18.2582 18.8069 18.2518 18.8733 18.2464C19.4922 18.1964 20.2446 18.0047 20.8455 17.7439C21.0646 17.6488 21.1202 17.6011 21.1352 17.4954C21.1402 17.4598 21.1424 16.9326 21.14 16.3238C21.1361 15.3485 21.1328 15.2152 21.1124 15.2024C21.0956 15.1918 21.0314 15.2106 20.8787 15.2709C20.3688 15.4723 19.7219 15.6255 19.208 15.6668C19.1483 15.6716 19.091 15.6783 19.0806 15.6817C19.0067 15.7058 18.1915 15.718 17.9156 15.6991C17.3546 15.6607 16.8816 15.5409 16.4609 15.3306C15.9627 15.0815 15.5959 14.6683 15.374 14.1062C15.3203 13.9703 15.2305 13.6412 15.2101 13.5056L15.2005 13.4415L17.5421 13.4401C18.83 13.4393 19.9482 13.4368 20.027 13.4346C20.1059 13.4323 20.3366 13.4286 20.5398 13.4262C20.8683 13.4224 21.0092 13.4153 21.2487 13.3901C21.286 13.3862 21.398 13.3788 21.4975 13.3735C21.8151 13.3569 21.8443 13.3481 21.8929 13.2546C21.9492 13.1463 22.0124 12.1601 21.9979 11.6166C21.9825 11.0384 21.9074 10.5891 21.7382 10.0621C21.5106 9.35313 21.0791 8.63543 20.59 8.15239C19.9466 7.5169 19.0541 7.12146 18.0136 7.01084C17.8447 6.99288 16.9798 6.97825 16.9633 6.99307ZM17.6074 9.40067C18.3674 9.5064 19.0031 10.1296 19.1217 10.8852C19.1422 11.0161 19.1461 11.2367 19.1283 11.2545C19.0947 11.2881 18.6917 11.2963 16.9846 11.2983L15.2015 11.3004L15.2099 11.2511C15.2908 10.7797 15.5234 10.2839 15.8057 9.98161C15.9926 9.78158 16.2681 9.59829 16.529 9.50049C16.6235 9.46507 16.8618 9.40619 16.9579 9.39452C17.0638 9.38165 17.5004 9.3858 17.6074 9.40067ZM5.38251 11.9378C5.41154 11.9419 5.49121 11.9497 5.55953 11.955C5.80355 11.9739 6.19354 12.0514 6.40054 12.122C6.90527 12.2942 7.18373 12.5068 7.35815 12.8533C7.49214 13.1195 7.55437 13.3706 7.56186 13.6753C7.57182 14.0798 7.47406 14.4055 7.25181 14.7084C7.0757 14.9484 6.67844 15.2192 6.34775 15.3246C6.02494 15.4274 5.55172 15.5172 5.16245 15.5494C4.9038 15.5708 3.39425 15.5568 3.0599 15.5299C3.03086 15.5275 2.99524 15.525 2.98072 15.5242C2.95574 15.5229 2.95432 15.4264 2.95432 13.7191V11.9154L4.14202 11.9228C4.79527 11.9269 5.35348 11.9336 5.38251 11.9378Z" fill="white"/>
<rect x="13.2812" y="4.10864" width="8.125" height="1.875" fill="white"/>
</svg>
