<svg width="25" height="24" viewBox="0 0 25 24" fill="none" xmlns="http://www.w3.org/2000/svg">
<path d="M16.0492 1.33363C15.2127 0.515567 14.0978 0.0396234 12.9252 0.000366211C11.7527 0.039652 10.6378 0.515544 9.80124 1.33363L1.75667 8.00049C1.21752 8.56054 0.915149 9.30518 0.912046 10.0804V19.4935C0.901272 20.6898 1.3733 21.8402 2.22268 22.6873C3.07201 23.5344 4.22756 24.0074 5.4304 24.0003H6.93203C7.33044 24.0003 7.71224 23.8429 7.99392 23.563C8.27538 23.2829 8.43363 22.903 8.43363 22.507V18.0403C8.43003 17.2494 8.7436 16.4898 9.30474 15.9293C9.86566 15.3689 10.6284 15.0537 11.4236 15.0537H14.4269C15.2222 15.0537 15.9848 15.3689 16.5458 15.9293C17.1069 16.4898 17.4205 17.2495 17.4169 18.0403V22.507C17.4169 22.903 17.5751 23.2829 17.8566 23.563C18.1383 23.8429 18.5201 24.0003 18.9185 24.0003H20.4201C21.6113 24.0003 22.7538 23.5297 23.5962 22.692C24.4383 21.8543 24.9117 20.7181 24.9117 19.5335V10.1204C24.9187 9.33112 24.6157 8.57038 24.0669 8.00026L16.0492 1.33363Z" fill="white"/>
</svg>
