<svg width="21" height="21" viewBox="0 0 21 21" fill="none" xmlns="http://www.w3.org/2000/svg">
<path fill-rule="evenodd" clip-rule="evenodd" d="M6.55181 0.0848045C3.2381 0.0848045 0.551811 2.7711 0.551811 6.08481V14.0848C0.551811 17.3985 3.2381 20.0848 6.55181 20.0848H14.5518C17.8655 20.0848 20.5518 17.3985 20.5518 14.0848V6.08481C20.5518 2.7711 17.8655 0.0848045 14.5518 0.0848045H6.55181ZM7.92558 9.02172C8.31611 8.6312 8.31611 7.99803 7.92558 7.60751C7.53506 7.21698 6.9019 7.21698 6.51137 7.60751L4.8447 9.27417C4.45418 9.6647 4.45418 10.2979 4.8447 10.6884L6.51137 12.3551C6.9019 12.7456 7.53506 12.7456 7.92558 12.3551C8.31611 11.9645 8.31611 11.3314 7.92558 10.9408L6.96602 9.98128L7.92558 9.02172ZM13.178 7.60751C12.7875 7.99803 12.7875 8.6312 13.178 9.02172L14.1376 9.98128L13.178 10.9408C12.7875 11.3314 12.7875 11.9645 13.178 12.3551C13.5686 12.7456 14.2017 12.7456 14.5923 12.3551L16.2589 10.6884C16.6494 10.2979 16.6494 9.6647 16.2589 9.27417L14.5923 7.60751C14.2017 7.21698 13.5686 7.21698 13.178 7.60751ZM8.73685 14.1642C8.63147 14.7063 8.98553 15.2313 9.52767 15.3366C10.0698 15.442 10.5947 15.088 10.7001 14.5458L12.3602 6.00541C12.4656 5.46327 12.1115 4.93835 11.5694 4.83297C11.0272 4.72759 10.5023 5.08165 10.3969 5.62379L8.73685 14.1642Z" fill="white"/>
</svg>
